<svg width="120" height="120" viewBox="0 0 120 120" fill="none" xmlns="http://www.w3.org/2000/svg">
<path d="M0 5C0 2.23858 2.23858 0 5 0H115C117.761 0 120 2.23858 120 5V115C120 117.761 117.761 120 115 120H5C2.23858 120 0 117.761 0 115V5Z" fill="#00C552"/>
<rect x="90" y="30" width="15" height="15" fill="#111111" fill-opacity="0.95"/>
<rect x="75" y="30" width="15" height="15" fill="#111111" fill-opacity="0.95"/>
<rect x="30" y="30" width="15" height="15" fill="#111111" fill-opacity="0.95"/>
<rect x="15" y="30" width="15" height="15" fill="#111111" fill-opacity="0.95"/>
<path d="M90 45H105V60H90V45Z" fill="#111111" fill-opacity="0.95"/>
<rect x="75" y="45" width="15" height="15" fill="black"/>
<rect x="30" y="45" width="15" height="15" fill="black"/>
<rect x="15" y="45" width="15" height="15" fill="#111111" fill-opacity="0.95"/>
<rect x="60" y="60" width="15" height="15" fill="#111111" fill-opacity="0.95"/>
<rect x="45" y="60" width="15" height="15" fill="#111111" fill-opacity="0.95"/>
<rect x="75" y="75" width="15" height="15" fill="#111111" fill-opacity="0.95"/>
<rect x="60" y="75" width="15" height="15" fill="black"/>
<rect x="45" y="75" width="15" height="15" fill="black"/>
<rect x="30" y="75" width="15" height="15" fill="#111111" fill-opacity="0.95"/>
<rect x="75" y="90" width="15" height="15" fill="black"/>
<rect x="60" y="90" width="15" height="15" fill="black"/>
<rect x="45" y="90" width="15" height="15" fill="black"/>
<rect x="30" y="90" width="15" height="15" fill="black"/>
<rect x="75" y="105" width="15" height="15" fill="#111111" fill-opacity="0.95"/>
<rect x="30" y="105" width="15" height="15" fill="#111111" fill-opacity="0.95"/>
</svg>
